<svg width="300" height="50" viewBox="0 0 300 50" fill="none" xmlns="http://www.w3.org/2000/svg">
<g clip-path="url(#clip0_64381_875)">
<path d="M299.611 36.8927L298.69 33.7261L297.826 30.8312C297.826 30.8312 295.095 21.9266 294.737 20.7539C294.299 19.32 293.866 17.8842 293.44 16.4465L293.372 16.2037L299.426 8.92948L296.579 0.000976562L266.08 0.0299457L265.148 1.51337L264.784 0.0319436L234.078 0.0639096L233.325 1.74912L233.028 0.0619117L202.081 0.0968745L201.537 2.11872L201.33 0.0968745L170.066 0.126843L169.766 3.43332L169.669 0.126843L138.247 0.159808L138.143 3.18259L137.817 0.155812L106.663 0.189776L106.454 2.1387L105.896 0.191774L90.8733 0.20476L89.6746 8.58484L88.9903 6.85568L88.6597 6.82671L86.0335 0.209754L71.2013 0.22374L70.9006 1.83103L70.1194 0.224738L55.4331 0.238724L55.0994 1.73913L54.2343 0.238724L39.6738 0.254707L37.9796 6.77976L34.0348 6.78376L33.2786 9.63473L26.4199 0.266694L12.25 0.281678L0.139893 37.8977L13.0142 49.8H27.0413L29.2689 41.4159L30.3567 42.6256H34.1097L40.3581 49.797L54.7718 49.793L55.0565 48.4364L56.0764 49.795L70.6019 49.793L70.8616 48.3256L71.7896 49.793L86.453 49.791L87.5858 41.9284L91.3688 49.791L106.228 49.788L106.415 47.9889L107.062 49.788L137.971 49.785L138.081 46.926L138.422 49.786L169.579 49.781L169.879 46.6563L169.984 49.781L185.269 49.778L185.747 47.5823L185.892 49.778L200.991 49.775L201.631 47.889L201.819 49.775H216.754L217.524 48.0958L217.746 49.775H232.54L233.428 48.2426L233.677 49.774L248.342 49.768L256.819 37.6829L256.413 35.7469L261.111 35.7439L267.744 26.5567L273.454 49.766L287.848 49.764L299.861 37.7978L299.611 36.8927ZM154.007 27.7075L154.163 22.572L168.877 22.563L169.006 20.8568L169.238 27.7025L154.007 27.7075V27.7075Z" fill="#020303"/>
<path d="M27.0673 8.79862L25.1094 15.6274H33.7981L35.6232 8.88353L39.5949 8.88054L41.2861 2.34049L52.737 2.32851L44.6656 37.0276L32.3207 37.0316L36.0198 22.2973L31.5635 22.2923L29.6356 29.4696L21.6391 29.4726L23.6329 22.2883L19.1167 22.3003L14.7624 37.0366L2.64429 37.0436L13.7694 2.36746L25.0085 2.35648L23.1445 8.65378L27.0673 8.79862ZM68.5271 2.39843L61.7044 37.1075L49.3566 37.1125L57.0773 2.40842L68.5271 2.39843ZM85.2264 25.8515L86.2493 18.6761L81.777 18.5922L78.8202 37.0176L66.4564 37.0196L72.9335 2.30953L84.3952 2.29854L83.3913 8.7247L87.3151 8.8246L86.3851 15.5375L90.7974 15.5994L92.6804 2.28855L104.15 2.27856L100.131 37.0096L87.7547 37.0146L89.304 25.9524L85.2264 25.8515ZM134.663 29.8482L134.35 36.9986L104.86 37.0076L108.532 2.27456L135.869 2.24659L135.599 8.39605L119.517 8.41104L119.01 15.4965L135.288 15.5405L134.994 22.2533L118.41 22.2643L117.853 29.7843L134.663 29.8482ZM295.042 2.09076L297.005 8.2562L289.021 8.26219L289.072 8.45299C289.402 9.80156 289.76 11.1731 290.142 12.5736C290.53 13.9791 290.937 15.4076 291.359 16.8551C291.786 18.3075 292.221 19.7809 292.673 21.2544C293.124 22.7368 293.583 24.2302 294.039 25.7216C294.316 26.6277 294.593 27.5407 294.874 28.4667C295.161 29.3937 295.448 30.3267 295.728 31.2657C296.015 32.2077 296.296 33.1547 296.577 34.1007C296.856 35.0487 297.136 35.9967 297.4 36.9447L284.941 36.9487L277.108 8.27518L269.119 8.28217L267.544 2.11773L295.042 2.09076V2.09076ZM266.356 15.2767L268.056 22.1734L251.384 22.1824L254.472 36.9587L242.034 36.9617L235.666 2.1487L263.133 2.12173L264.646 8.28517L248.479 8.29916L249.938 15.2697L266.356 15.2767ZM218.563 25.7376L220.099 36.9707L207.673 36.9737L203.827 2.18066L231.261 2.15369L237.278 36.9677L224.85 36.9707L223.23 25.7536L218.563 25.7376V25.7376ZM226.619 12.0731L225.921 7.65384L220.488 7.65983L220.988 11.7095L216.724 11.6756L216.175 7.66283L210.92 7.66982L211.473 12.0851L216.297 12.0831L216.52 13.7074L214.094 13.7094L214.98 20.5162L217.891 20.5132L217.672 18.1986L221.988 18.1816L222.348 20.5092L225.298 20.5072L224.264 13.7324L221.859 13.7184L221.65 12.0741L226.619 12.0731V12.0731ZM197.013 18.9588L201.114 18.9558L202.928 36.9737L190.517 36.9806L189.409 22.3122L184.814 22.1994L185.768 36.9806L173.358 36.9876L172.025 2.21263L199.428 2.18666L200.726 15.0899L196.636 15.0859L197.013 18.9588V18.9588ZM188.919 15.5065L188.381 8.3521L183.92 8.3531L184.381 15.5085L188.919 15.5065V15.5065ZM151.91 8.38207L167.807 8.36908L167.631 2.21563L140.258 2.2446L139.088 36.9956L168.62 36.9876L168.415 29.8422L151.53 29.8482L151.91 8.38207Z" fill="#A9A09D"/>
<path d="M4.26351 37.0418C3.37346 37.0418 3.16968 37.5463 3.81299 38.1626L12.5956 46.5807C13.237 47.195 14.4926 47.7015 15.3837 47.7015H23.1154C24.0065 47.7015 24.2363 47.168 23.6299 46.5147L15.8682 38.2196C15.2618 37.5703 14.0341 37.0368 13.1431 37.0368L4.26351 37.0418V37.0418ZM33.9409 37.0328C33.0499 37.0328 32.7871 37.5932 33.3595 38.2745L40.2172 46.4568C40.7886 47.1421 41.9854 47.6995 42.8764 47.6995H50.9838C51.8748 47.6995 52.1685 47.1151 51.6371 46.3989L45.6325 38.3284C45.1 37.6122 43.9363 37.0268 43.0452 37.0278L33.9409 37.0328V37.0328Z" fill="#282729"/>
<path d="M23.2574 29.4716C22.3673 29.4716 22.1206 30.0161 22.712 30.6853L30.3429 39.2992C30.9342 39.9665 32.0121 40.4839 32.7413 40.447C33.4675 40.414 33.6443 39.7887 33.1319 39.0584L32.6005 38.3052C32.087 37.577 31.8612 36.2784 32.1 35.4183L32.2478 34.8809C32.4876 34.0238 32.2278 32.7482 31.6754 32.0499L30.6385 30.7403C30.0861 30.041 28.9054 29.4706 28.0153 29.4706H23.2574V29.4716ZM50.9759 37.1125C50.0838 37.1135 49.7892 37.7029 50.3166 38.4201L56.1824 46.3946C56.7068 47.1139 57.8686 47.7012 58.7606 47.7012H66.7461C67.6362 47.7012 67.9778 47.0849 67.5023 46.3297L62.5646 38.4811C62.0901 37.7259 60.9743 37.1085 60.0832 37.1105L50.9759 37.1125V37.1125ZM68.0757 37.0196C67.1857 37.0196 66.836 37.6419 67.3015 38.4021L72.0605 46.1928C72.526 46.953 73.6318 47.5754 74.5238 47.5754H82.3815C83.2735 47.5754 83.6821 46.9211 83.2875 46.1209L79.5365 38.4711C79.1429 37.6709 78.0941 37.0176 77.203 37.0176L68.0757 37.0196V37.0196ZM89.375 37.0136C88.485 37.0136 88.0624 37.6749 88.437 38.4831L92.0192 46.2298C92.3948 47.0399 93.4287 47.7002 94.3198 47.7002H102.431C103.322 47.7002 103.801 47.015 103.492 46.1799L100.688 38.529C100.38 37.6929 99.4024 37.0096 98.5103 37.0096L89.375 37.0136ZM106.48 37.0086C105.59 37.0086 105.106 37.6959 105.406 38.531L108.049 45.9201C108.348 46.7612 109.323 47.4465 110.214 47.4465H134.208C135.1 47.4465 135.727 46.7223 135.602 45.8432L134.577 38.5999C134.453 37.7169 133.62 36.9976 132.732 36.9976L106.48 37.0086V37.0086ZM140.707 36.9956C139.817 36.9956 139.166 37.7199 139.262 38.6059L140.069 46.089C140.165 46.976 140.971 47.6992 141.862 47.6992H165.733C166.625 47.6992 167.439 46.974 167.543 46.091L168.429 38.5959C168.534 37.7099 167.889 36.9866 166.998 36.9876L140.707 36.9956V36.9956ZM174.979 36.9856C174.088 36.9856 173.268 37.7109 173.155 38.5939L172.221 45.9671C172.109 46.8521 172.744 47.5744 173.636 47.5744H181.625C182.516 47.5744 183.415 46.8651 183.62 45.9991L185.393 38.556C185.596 37.6889 185.039 36.9807 184.148 36.9816L174.979 36.9856V36.9856ZM192.137 36.9797C191.246 36.9797 190.35 37.6899 190.143 38.557L188.408 45.8732C188.202 46.7403 188.761 47.4495 189.653 47.4495H197.641C198.533 47.4495 199.502 46.7622 199.797 45.9211L202.397 38.503C202.688 37.6629 202.203 36.9747 201.312 36.9757L192.137 36.9797V36.9797ZM209.291 36.9727C208.397 36.9727 207.426 37.6599 207.13 38.5L204.465 46.049C204.168 46.8881 204.653 47.5754 205.543 47.5754H213.523C214.415 47.5754 215.453 46.9141 215.832 46.1049L219.414 38.4361C219.79 37.628 219.371 36.9677 218.481 36.9677L209.291 36.9727V36.9727ZM226.469 36.9677C225.577 36.9687 224.53 37.623 224.14 38.4241L220.394 46.1179C220.004 46.9201 220.415 47.5744 221.305 47.5744H229.54C230.432 47.5744 231.524 46.944 231.969 46.1729L236.469 38.3692C236.915 37.599 236.55 36.9677 235.657 36.9677H226.469V36.9677ZM243.656 36.9607C242.766 36.9607 241.656 37.584 241.194 38.3452L236.418 46.1908C235.953 46.952 236.303 47.5754 237.192 47.5754H245.3C246.192 47.5754 247.344 46.981 247.859 46.2558L253.535 38.2793C254.051 37.553 253.746 36.9597 252.852 36.9597L243.656 36.9607V36.9607ZM286.562 36.9477C285.671 36.9477 284.46 37.4931 283.871 38.1624L276.744 46.2338C276.153 46.9031 276.4 47.4485 277.292 47.4485H285.02C285.914 47.4485 287.163 46.9381 287.801 46.3187L296.246 38.0735C296.882 37.4521 296.675 36.9437 295.783 36.9447L286.562 36.9477V36.9477Z" fill="#282729"/>
<path d="M11.7246 8.13731C11.6417 8.36307 12.302 8.54987 13.1921 8.55187L21.684 8.58683C22.5751 8.59083 23.3123 8.39803 23.3263 8.16129C23.3383 7.92254 22.619 7.72675 21.728 7.72675H13.4947C12.6027 7.72675 11.8065 7.91155 11.7246 8.13731V8.13731ZM11.1353 25.7845C11.412 24.9384 10.9115 24.2452 10.0214 24.2452H7.94665C7.0556 24.2452 6.32837 24.416 6.32837 24.6228C6.32837 24.8305 7.05659 25.0024 7.94665 25.0024H8.97355C9.86361 25.0024 10.3661 25.6936 10.0874 26.5407L8.19938 32.2876C7.92267 33.1367 8.42414 33.828 9.31519 33.828H15.6774C16.5695 33.828 17.2977 33.6571 17.2977 33.4494C17.2977 33.2416 16.5695 33.0718 15.6774 33.0718H10.3611C9.46903 33.0718 8.96756 32.3785 9.24726 31.5314L9.3981 31.0789C9.67581 30.2318 10.6328 29.5395 11.5228 29.5395H16.4336C17.3257 29.5395 18.0549 29.3697 18.0549 29.1629C18.0549 28.9532 17.3257 28.7843 16.4336 28.7843H11.7706C10.8805 28.7843 10.3791 28.0941 10.6568 27.245L11.1353 25.7845ZM44.9992 9.62473C45.1201 8.74367 44.4878 8.02044 43.5987 8.02044L41.1373 8.02343C40.2463 8.02443 39.4541 8.19525 39.3742 8.40203C39.2943 8.60581 39.9606 8.77663 40.8516 8.77663H42.7346C43.6257 8.77663 44.257 9.49886 44.1361 10.3809L43.7905 12.9302C43.6706 13.8133 42.8435 14.5345 41.9545 14.5345H34.1737C33.2827 14.5345 32.5545 14.7053 32.5545 14.9121C32.5545 15.1199 33.2827 15.2907 34.1737 15.2907H49.4685C50.3595 15.2907 51.0877 15.1199 51.0877 14.9121C51.0877 14.7053 50.3595 14.5345 49.4685 14.5345H45.9532C45.0632 14.5345 44.4298 13.8123 44.5517 12.9302L44.9992 9.62473ZM55.6859 32.7871C55.8457 31.91 55.7428 31.5674 55.4571 32.0229C55.1704 32.4764 54.8028 33.5652 54.638 34.4433L54.3972 35.7279C54.2324 36.602 54.5071 37.9226 55.0076 38.6618L55.4151 39.2612C55.9166 39.9984 56.7158 40.8894 57.1922 41.2431C57.6677 41.5967 57.6528 41.28 57.1573 40.5398L55.7907 38.496C55.2953 37.7548 55.0206 36.4332 55.1814 35.5561L55.6859 32.7871V32.7871ZM67.8599 9.366C67.8599 9.15822 67.1327 9.00139 66.2426 9.01837L63.05 9.08131C62.159 9.10029 61.7993 9.25512 62.2499 9.42794C62.7004 9.60175 63.7982 9.7446 64.6883 9.7446H66.2416C67.1327 9.7446 67.8599 9.57378 67.8599 9.366V9.366ZM72.5529 34.6231C72.7477 33.753 72.6498 33.4264 72.3391 33.8949C72.0305 34.3664 71.6589 35.2584 71.513 35.8778C71.3672 36.4991 71.484 37.6269 71.7737 38.3831C72.0624 39.1413 72.5619 40.1003 72.8826 40.5138C73.2052 40.9264 73.2402 40.5748 72.9595 39.7277L72.5479 38.493C72.2672 37.6459 72.1943 36.2414 72.3861 35.3733L72.5529 34.6231V34.6231ZM69.5002 25.8415C68.6091 25.7965 67.8729 25.9284 67.8599 26.1372C67.8509 26.3449 68.5711 26.5507 69.4612 26.5967L78.5146 27.0552C79.4026 27.0991 80.3636 27.4967 80.6473 27.9382C80.931 28.3758 81.3056 28.6455 81.4794 28.5336C81.6552 28.4217 81.5204 27.8933 81.1777 27.3638C80.8371 26.8344 79.8262 26.3629 78.9411 26.318L69.5002 25.8415V25.8415ZM79.084 8.16129C79.4296 8.40203 80.4415 8.59882 81.3326 8.59882H82.0208C82.9109 8.59882 83.6411 8.429 83.6411 8.21922C83.6411 8.01344 82.9119 7.82464 82.0208 7.80466L80.0719 7.76271C79.1819 7.74073 78.7373 7.92154 79.084 8.16129ZM89.8925 26.0692C89.0034 26.1072 88.2802 26.309 88.2892 26.5157C88.2972 26.7235 89.0334 26.8624 89.9214 26.8244L95.1808 26.6017C96.0709 26.5637 96.6902 27.253 96.5564 28.135L95.4565 35.4063C95.3207 36.2854 95.4216 37.7048 95.6803 38.5579L95.9091 39.3201C96.1678 40.1732 96.6802 41.3 97.0538 41.8255C97.4274 42.3499 97.5213 42.0822 97.2666 41.2281L96.4535 38.504C96.1997 37.6499 96.0999 36.2304 96.2317 35.3513L97.4404 27.3389C97.5733 26.4578 96.9549 25.7675 96.0639 25.8065L89.8925 26.0692V26.0692ZM91.6945 7.97848C91.6586 8.18326 92.3478 8.47295 93.2279 8.6218L102.191 9.67467C103.074 9.78456 103.798 9.70264 103.798 9.49487C103.798 9.28509 103.074 9.02337 102.191 8.91348L93.3558 7.87659C92.4757 7.72675 91.7275 7.7737 91.6945 7.97848V7.97848ZM111.199 30.7822C111.207 30.5722 111.173 30.3626 111.098 30.1663C111.023 29.9699 110.909 29.7907 110.763 29.6396C110.617 29.4884 110.441 29.3685 110.248 29.2869C110.054 29.2053 109.846 29.1638 109.635 29.1649H106.43C105.54 29.1649 104.81 29.3367 104.81 29.5425C104.81 29.7503 105.54 29.9221 106.43 29.9221H108.851C109.061 29.9213 109.27 29.963 109.463 30.0447C109.657 30.1263 109.832 30.2463 109.978 30.3974C110.124 30.5485 110.238 30.7275 110.313 30.9238C110.388 31.12 110.423 31.3294 110.415 31.5394L110.285 35.2794C110.254 36.1705 110.41 37.6029 110.63 38.465L111.229 40.8035C111.452 41.6666 111.865 42.7944 112.154 43.3089C112.439 43.8263 112.514 43.5356 112.317 42.6666L111.348 38.3941C111.152 37.526 111.015 36.0866 111.045 35.1965L111.199 30.7822V30.7822ZM106.702 12.3938C106.702 12.6016 107.431 12.7734 108.322 12.7734H111.385C112.275 12.7734 113.372 12.5736 113.823 12.3328C114.275 12.0891 113.913 11.9023 113.023 11.9153L108.321 11.9912C107.431 12.0042 106.702 12.186 106.702 12.3938V12.3938ZM127.545 16.2806C127.524 15.3886 127.336 14.6604 127.124 14.6604C126.919 14.6604 126.748 15.3886 126.748 16.2806V19.9767C126.748 20.8678 126.945 21.1684 127.189 20.651C127.431 20.1295 127.61 18.9768 127.589 18.0847L127.545 16.2806ZM131.232 30.066C131.213 30.499 131.028 30.9081 130.716 31.209C130.404 31.5098 129.989 31.6796 129.555 31.6832H127.105C126.215 31.6832 125.485 32.4125 125.485 33.3045V35.7399C125.485 36.632 125.653 37.3592 125.864 37.3592C126.073 37.3592 126.243 36.631 126.243 35.7399V34.0607C126.243 33.1707 126.971 32.4434 127.864 32.4434H130.289C131.18 32.4434 131.933 31.7152 131.963 30.8232L131.989 30.039C132.02 29.1479 131.874 28.4147 131.666 28.4057C131.458 28.3987 131.261 29.121 131.231 30.01L131.232 30.066V30.066ZM162.246 31.7522C162.073 32.0838 162.009 33.0798 162.103 33.9658L162.263 35.4922C162.356 36.3783 162.331 37.8247 162.21 38.7068L161.145 46.4246C161.024 47.3056 161.132 48.0169 161.385 48.0059C161.642 47.9939 161.941 47.2607 162.051 46.3766L162.999 38.7218C163.108 37.8367 163.12 36.3882 163.024 35.5032L162.733 32.7601C162.638 31.875 162.419 31.4205 162.246 31.7522V31.7522ZM139.484 43.6645C139.484 43.8723 140.212 44.0431 141.103 44.0431H141.523C142.413 44.0431 143.141 43.8733 143.141 43.6645C143.141 43.4577 142.413 43.2869 141.523 43.2869H141.103C140.212 43.2869 139.484 43.4577 139.484 43.6645ZM142.386 13.4007C142.802 13.6085 143.852 13.9401 144.721 14.1359L150.961 15.2497C151.781 15.6034 152.517 15.7362 152.599 15.5444C152.683 15.3546 152.058 14.968 151.213 14.6883L143.22 13.3258C142.345 13.158 141.969 13.1929 142.386 13.4007ZM142.257 20.3993C142.603 20.1555 142.159 19.9837 141.269 20.0167L140.977 20.0267C140.084 20.0586 139.358 20.2554 139.358 20.4632C139.358 20.671 139.868 20.8408 140.491 20.8408C141.116 20.8408 141.909 20.642 142.257 20.3993V20.3993ZM177.509 13.7783C177.562 14.2638 178.334 14.6614 179.228 14.6614H179.935C180.825 14.6614 181.665 14.7003 181.796 14.7453C181.933 14.7922 182.434 15.1488 182.611 15.042C182.789 14.9361 182.658 14.6384 182.322 14.3827C181.986 14.1269 180.945 13.9122 180.055 13.9092H179.905C179.013 13.9082 178.203 13.1809 178.104 12.2979L177.111 3.36939C177.01 2.48133 176.759 1.77708 176.554 1.80205C176.349 1.82503 176.258 2.56824 176.357 3.4533L177.146 10.5318C177.246 11.4168 176.592 12.1401 175.704 12.1401H173.134C172.243 12.1401 171.516 12.3099 171.516 12.5157C171.516 12.7234 172.244 12.8932 173.134 12.8932H175.788C176.68 12.8932 177.452 13.2918 177.509 13.7783V13.7783ZM176.425 31.5454C176.485 32.4334 176.173 33.792 175.728 34.5642L175.051 35.3264C174.844 36.1934 174.84 36.9367 175.043 36.9806C175.248 37.0236 175.637 36.3663 175.907 35.5172C175.907 35.5172 176.011 35.1476 176.339 34.6811C176.664 34.2116 177.027 33.828 177.137 33.828C177.248 33.828 177.291 33.0997 177.231 32.2127L176.95 28.13C176.933 27.9227 176.959 27.7141 177.028 27.5176C177.096 27.3211 177.205 27.1411 177.347 26.9891C177.489 26.8371 177.661 26.7165 177.852 26.6349C178.044 26.5534 178.25 26.5128 178.458 26.5157H184.526C185.417 26.5157 186.143 26.3449 186.143 26.1372C186.143 25.9304 185.415 25.7576 184.526 25.7576H177.648C176.758 25.7576 176.076 26.4858 176.138 27.3738L176.425 31.5454V31.5454ZM189.167 28.4077C189.167 28.6155 189.895 28.7863 190.786 28.7863H194.86C195.752 28.7863 196.792 28.6155 197.173 28.4077C197.56 28.199 197.142 28.0271 196.252 28.0271L190.784 28.0291C189.896 28.0291 189.167 28.2 189.167 28.4077V28.4077ZM192.665 17.7291C192.892 17.9159 193.805 18.0697 194.694 18.0697H195.871C196.763 18.0697 197.49 17.8989 197.49 17.6921C197.49 17.4824 196.762 17.3225 195.871 17.3355L193.877 17.3645C192.983 17.3775 192.44 17.5413 192.665 17.7291ZM171.892 44.2948C171.874 44.5016 172.59 44.7244 173.479 44.7873L182.483 45.4356C183.369 45.5005 184.108 45.3827 184.126 45.1749C184.14 44.9681 183.426 44.7473 182.536 44.6824L173.537 44.0361C172.649 43.9722 171.908 44.088 171.892 44.2948ZM224.452 28.137C223.561 28.148 222.835 28.3248 222.836 28.5326C222.837 28.7404 223.567 28.9032 224.457 28.8952L235.467 30.1179C236.353 30.2038 237.139 30.1149 237.209 29.9201C237.283 29.7273 236.615 29.4926 235.731 29.4027L224.452 28.137ZM258.776 14.1559C258.581 14.2248 258.46 15.009 258.502 15.9L259.508 20.9726C259.126 21.7778 258.966 22.512 259.153 22.6059C259.341 22.6988 259.811 22.1184 260.197 21.3163L259.215 15.6473C259.168 14.7573 258.974 14.087 258.776 14.1559ZM252.933 4.69997C252.136 4.69997 251.279 4.02069 251.023 3.19457C250.769 2.36545 250.401 1.73812 250.2 1.80006C250.003 1.86099 250.054 2.6082 250.315 3.45929L250.454 3.90981C250.713 4.7619 251.581 5.45816 252.384 5.45816C253.184 5.45816 254.077 6.14543 254.363 6.99053L254.74 8.08137C255.029 8.92447 255.427 9.5588 255.62 9.49087C255.817 9.42494 255.741 8.67973 255.452 7.83763L254.902 6.23234C254.614 5.39024 253.727 4.69997 252.933 4.69997ZM282.84 26.6416C281.95 26.6416 281.223 26.8114 281.223 27.0202C281.223 27.23 281.951 27.4008 282.84 27.4008H293.221C294.114 27.4008 294.84 27.23 294.84 27.0202C294.84 26.8114 294.112 26.6416 293.221 26.6416H282.84ZM290.678 8.86154C290.877 8.8066 290.854 8.05839 290.616 7.20031L289.576 3.38936C289.345 2.52928 288.987 1.87098 288.784 1.92692C288.587 1.98086 288.612 2.72907 288.847 3.58815L289.887 7.3971C290.123 8.25618 290.479 8.91548 290.678 8.86154" fill="#020303"/>
<path d="M39.0476 8.63961H42.44C43.3301 8.63961 43.3431 8.49776 42.469 8.32894L41.2992 8.09919C40.4242 7.92837 39.7549 8.0862 39.8068 8.45281L39.0476 8.63961V8.63961ZM20.0688 42.2119C19.7242 41.8303 18.7163 41.6065 17.8342 41.7134L15.8773 41.9552C14.9932 42.0621 14.9932 42.2359 15.8783 42.3418L19.0899 42.7194C19.9759 42.8223 20.4164 42.5945 20.0688 42.2119V42.2119ZM52.1607 46.3755C51.9199 45.9939 50.9949 45.7421 50.1059 45.8191L45.8953 46.1747C45.0073 46.2486 45.0073 46.3775 45.8933 46.4584L50.9909 46.9199C51.878 47.0008 52.4064 46.7561 52.1607 46.3755V46.3755ZM91.0024 44.7991C90.8985 44.4535 91.5398 44.1908 92.4318 44.2158L93.4807 44.2477C94.3708 44.2707 94.4007 44.4975 93.5436 44.7462L92.7435 44.976C91.8894 45.2247 91.1052 45.1448 91.0024 44.7991V44.7991ZM135.448 42.3408C135.38 41.8203 134.604 41.4967 133.722 41.6225L130.745 42.0471C129.867 42.1729 129.867 42.3887 130.744 42.5276L133.972 43.035C134.853 43.1739 135.516 42.8612 135.448 42.3408ZM139.166 44.1418C139.121 43.6224 139.811 43.2828 140.694 43.3827L140.787 43.3936C141.674 43.4955 141.742 43.8931 140.938 44.2797L140.709 44.3886C139.905 44.7722 139.211 44.6613 139.166 44.1418V44.1418ZM111.051 35.4681C110.946 34.7049 110.747 34.6479 110.608 35.3422C110.47 36.0355 110.565 37.3011 110.82 38.1532L111.024 38.8325C111.281 39.6856 111.441 39.6556 111.378 38.7696L111.357 38.4709C111.28 37.4675 111.179 36.4662 111.051 35.4681V35.4681ZM125.802 36.0345C125.629 35.7228 125.512 36.1943 125.544 37.0844L125.557 37.5069C125.589 38.397 125.726 38.5578 125.868 37.8645C126.005 37.1703 125.977 36.3471 125.802 36.0345ZM95.9191 35.7188C95.8832 34.9546 95.7433 34.9546 95.6065 35.7188C95.4676 36.483 95.5845 37.7986 95.8632 38.6437L96.0989 39.3519C96.3796 40.197 96.4915 40.1681 96.3447 39.291L96.2488 38.7056C96.089 37.7162 95.979 36.7193 95.9191 35.7188V35.7188ZM71.8947 36.2872C71.7558 35.9745 71.5261 36.0315 71.3912 36.4131C71.2524 36.7947 71.3962 37.5019 71.7079 37.9874C72.0195 38.4719 72.2493 38.4179 72.2123 37.8615C72.1764 37.3081 72.0345 36.5999 71.8947 36.2872V36.2872ZM55.1235 35.7528C54.9517 34.9876 54.64 35.0725 54.4323 35.9396V35.9426C54.2235 36.8076 54.5651 38.0284 55.1875 38.6527C55.8108 39.278 56.1215 39.1931 55.8807 38.4649C55.5913 37.5716 55.3386 36.6668 55.1235 35.7528V35.7528ZM24.9256 34.6489C24.6829 34.3373 25.2113 34.1455 26.0994 34.2224L28.6677 34.4452C29.5557 34.5221 29.5577 34.6769 28.6757 34.7918L26.9735 35.0116C26.0914 35.1244 25.1694 34.9616 24.9256 34.6489ZM162.459 35.1784C162.586 34.2973 162.838 34.2873 163.029 35.1574L163.105 35.522C163.292 36.3931 163.258 37.8106 163.031 38.6717L162.722 39.8284C162.493 40.6865 162.287 40.6635 162.262 39.7725L162.23 38.7256C162.204 37.8346 162.286 36.3851 162.412 35.502L162.459 35.1784V35.1784ZM152.346 15.7341C152.346 16.1157 151.743 16.0148 151.006 15.5173L150.53 15.1946C149.793 14.6932 149.898 14.4534 150.765 14.6612L150.769 14.6622C151.638 14.872 152.346 15.3515 152.346 15.7341V15.7341ZM201.589 41.3928C201.692 41.0461 201.048 40.7844 200.156 40.8084L198.982 40.8424C198.093 40.8683 198.067 41.0851 198.923 41.3278L199.84 41.5846C200.7 41.8243 201.485 41.7374 201.589 41.3928V41.3928ZM195.281 36.0355C195.038 35.515 194.866 35.8187 194.9 36.7098L194.906 36.8756C194.941 37.7646 195.137 38.1522 195.343 37.7367C195.554 37.3201 195.526 36.5559 195.281 36.0355V36.0355ZM217.668 42.9701C217.806 42.5885 217.191 42.3358 216.306 42.4067L213.229 42.6534C212.34 42.7234 212.334 42.8902 213.215 43.025L215.815 43.4206C216.693 43.5545 217.527 43.3517 217.668 42.9701V42.9701ZM214.515 36.2243C214.374 35.8067 214.177 35.7787 214.074 36.1603C213.971 36.5429 214.001 37.394 214.136 38.0543C214.275 38.7126 214.474 38.7416 214.575 38.1163C214.681 37.4919 214.654 36.6408 214.515 36.2243ZM259.215 22.7946C258.904 22.6907 258.933 21.9525 259.279 21.1553C259.625 20.3571 259.881 20.4311 259.845 21.3221L259.843 21.3661C259.811 22.2561 259.527 22.9004 259.215 22.7946ZM238.03 42.087C238.343 41.7064 239.319 41.5017 240.199 41.6335L244.561 42.2878C245.443 42.4197 245.436 42.5495 244.547 42.5735L239.082 42.7333C238.192 42.7613 237.72 42.4686 238.03 42.087V42.087ZM279.389 42.087C279.772 41.5666 280.799 41.2779 281.676 41.4487L285.684 42.2219C286.557 42.3907 286.545 42.5695 285.656 42.6235L280.315 42.9361C279.422 42.9921 279.008 42.6085 279.389 42.087V42.087ZM281.032 26.9551C280.858 26.3658 281.435 25.9912 282.316 26.122L285.921 26.6545C286.801 26.7853 286.805 27.0241 285.928 27.1849L282.942 27.7333C282.066 27.8941 281.208 27.5445 281.032 26.9551V26.9551ZM276.804 9.42877C276.528 9.18503 276.272 8.25802 276.242 7.36897L276.235 7.20014C276.205 6.31009 276.363 6.28812 276.591 7.1482L276.896 8.30397C277.122 9.16506 277.081 9.67251 276.804 9.42877ZM236.708 30.5513L234.43 29.6383C233.603 29.3076 233.65 29.1048 234.537 29.1878L236.958 29.4145L236.708 30.5513ZM150.14 37.8615C150.311 37.378 150.311 36.6119 150.14 36.1593C149.969 35.7098 149.098 35.3432 148.208 35.3432H147.281C146.39 35.3432 145.407 35.7678 145.096 36.2892C144.783 36.8096 145.23 37.435 146.087 37.6787L148.271 38.3021C149.129 38.5448 149.969 38.346 150.14 37.8615" fill="#020303"/>
<path d="M148.627 36.6008C148.035 35.9785 148.065 35.466 148.69 35.466C149.314 35.466 150.08 35.7787 150.392 36.1603C150.703 36.5429 150.572 37.4729 150.099 38.2281L149.925 38.5088C149.45 39.262 149.208 39.3989 149.38 38.8085C149.558 38.2171 149.216 37.2262 148.627 36.6008V36.6008ZM91.5668 8.23003C91.6367 7.74554 92.3989 7.52378 93.262 7.74155L93.6505 7.83844C94.5156 8.05621 94.5116 8.39785 93.6446 8.60063L93.0182 8.74648C92.1511 8.94926 91.4968 8.71751 91.5668 8.23003V8.23003ZM50.7742 15.1017C50.5994 15.4134 49.7523 15.4973 48.8842 15.2895L48.3757 15.1666C47.5117 14.9589 47.5276 14.7451 48.4197 14.6912L49.4696 14.6292C50.3596 14.5773 50.948 14.789 50.7742 15.1017V15.1017ZM17.9252 29.0359C18.066 28.6183 17.4616 28.4175 16.5886 28.5894L15.233 28.8531C14.3589 29.0239 14.3629 29.2766 15.242 29.4135L16.0731 29.5443C16.9512 29.6812 17.7863 29.4534 17.9252 29.0359Z" fill="#020303"/>
<path d="M20.4475 42.3409C20.1708 42.0293 20.1478 41.0723 20.4005 40.2202L20.7482 39.0385C20.9989 38.1834 21.1687 38.2123 21.1278 39.1014L21.0259 41.2881C20.9849 42.1811 20.7252 42.6506 20.4475 42.3409V42.3409ZM51.9729 46.5005C51.6952 46.3267 51.6952 45.5625 51.9729 44.7983C52.2507 44.0351 52.4774 44.141 52.4774 45.0321V45.1959C52.4774 46.0869 52.2507 46.6743 51.9729 46.5005ZM80.4087 27.5247C80.3747 26.9693 80.6115 27.1921 80.9381 28.0232L81.1379 28.5386C81.4656 29.3678 81.4486 29.7054 81.101 29.2898C80.7543 28.8733 80.4427 28.0791 80.4087 27.5247V27.5247ZM238.412 42.5927C238.722 42.3489 238.777 41.4499 238.532 40.5938L238.16 39.2932C237.916 38.4371 237.732 38.4651 237.756 39.3551L237.807 41.4149C237.826 42.305 238.099 42.8354 238.412 42.5927ZM280.023 42.3389C280.474 42.0952 280.539 41.2351 280.164 40.428L278.494 36.8118C278.121 36.0007 277.95 36.0546 278.112 36.9327L278.908 41.1882C279.07 42.0652 279.573 42.5827 280.023 42.3389V42.3389ZM281.787 26.8934C281.614 26.5458 281.15 26.9164 280.758 27.7155L279.034 31.2388C278.64 32.0389 278.75 32.1048 279.276 31.3876L281.147 28.8283C281.674 28.1121 281.962 27.242 281.787 26.8934Z" fill="#282729"/>
<path d="M254.737 9.61798L254.807 7.58215C254.836 6.6901 255.045 6.66812 255.27 7.5292L255.871 9.86971" fill="#020303"/>
<path d="M14.4596 43.2218C13.6625 42.979 13.7194 42.8372 14.5855 42.9091C15.5337 42.9863 16.4794 43.0909 17.4215 43.2228C18.1137 43.3267 18.0578 43.4695 17.2956 43.5365C16.5324 43.6064 15.2568 43.4645 14.4596 43.2218V43.2218ZM54.3781 38.7565C53.7498 38.1272 53.6579 38.2041 54.1744 38.9284L54.8137 39.8234C55.3311 40.5486 56.1533 41.3957 56.6397 41.7094C57.1242 42.0211 57.0972 41.7673 56.5778 41.142C55.9085 40.3567 55.2104 39.5963 54.485 38.8624L54.3781 38.7565V38.7565ZM70.6348 36.9814C70.4251 36.9814 70.5399 37.5758 70.8866 38.306C71.2332 39.0342 71.403 39.0342 71.2652 38.306C71.1263 37.5748 70.8426 36.9814 70.6348 36.9814ZM93.8411 45.0518C93.1469 44.9819 93.2977 44.7961 94.1738 44.6343L95.1417 44.4595C96.0178 44.2996 96.3674 44.3975 95.9159 44.6752C95.4694 44.952 94.5334 45.1208 93.8411 45.0518V45.0518ZM110.041 38.305C109.728 37.8545 109.614 38.1372 109.787 38.9344C109.961 39.7315 110.415 40.9532 110.797 41.6455C111.176 42.3407 111.325 42.1979 111.123 41.3318L110.977 40.7045C110.773 39.8344 110.354 38.7545 110.041 38.305V38.305ZM163.635 39.6905C163.53 39.1701 163.272 39.255 163.066 39.8783C162.859 40.5027 162.688 41.6924 162.688 42.5275C162.688 43.3586 162.919 43.3487 163.202 42.5056L163.312 42.1729C163.592 41.3288 163.739 40.211 163.635 39.6905V39.6905ZM145.777 36.2182C145.601 35.6868 145.198 35.7777 144.882 36.419C144.565 37.0603 144.965 37.9035 145.764 38.294L145.804 38.311C146.601 38.6996 146.998 38.6057 146.678 38.1002C146.361 37.5978 145.953 36.7507 145.777 36.2182V36.2182ZM175.737 45.3026C174.941 45.0958 175.017 44.925 175.907 44.925H176.199C177.09 44.925 178.47 45.1517 179.27 45.4294C180.066 45.7072 179.994 45.883 179.102 45.819L178.806 45.7981C177.918 45.7331 176.537 45.5114 175.737 45.3026ZM195.977 38.305C195.911 37.9924 195.654 38.2771 195.41 38.9344C195.164 39.5927 195.222 39.8494 195.537 39.5027C195.847 39.1551 196.048 38.6147 195.977 38.305V38.305ZM215.447 37.6168C215.377 37.3071 215.121 37.5898 214.879 38.2491C214.636 38.9064 214.693 39.1651 215.006 38.8155C215.317 38.4678 215.518 37.9294 215.447 37.6168ZM212.322 43.4655C211.446 43.2977 211.458 43.0889 212.343 43.002L213.029 42.9361C213.915 42.8512 215.009 43.007 215.463 43.2867C215.913 43.5634 215.771 43.7912 215.147 43.7912C214.523 43.7912 213.297 43.6533 212.421 43.4845L212.322 43.4655ZM240.935 43.4126C240.135 43.4805 240.135 43.3397 240.935 43.0969C241.731 42.8532 243.111 42.7163 243.996 42.7923L245.183 42.8961C246.069 42.9711 246.069 43.0769 245.179 43.1269L243.998 43.1928C243.111 43.2458 241.73 43.3437 240.935 43.4126Z" fill="#595558"/>
<path d="M259.402 23.0477C258.986 23.2225 258.366 24.0356 258.024 24.8588L258.008 24.8927C257.666 25.7159 257.825 25.8088 258.361 25.0985L259.176 24.0227C259.719 23.3114 259.82 22.8729 259.402 23.0477" fill="#282729"/>
<path d="M290.742 9.2402C290.359 9.2402 289.977 8.51397 289.89 7.62791L289.825 6.94364C289.739 6.05459 289.971 5.99465 290.336 6.80579L290.772 7.76377C291.136 8.5759 291.124 9.2402 290.742 9.2402ZM171.578 12.8324C171.545 12.3819 172.245 12.0382 173.135 12.0682L173.676 12.0852C174.567 12.1161 174.621 12.4178 173.8 12.7585L173.136 13.0302C172.314 13.3718 171.612 13.2819 171.578 12.8324V12.8324ZM127.254 14.4716C126.904 14.2978 126.713 14.8782 126.829 15.7613L126.918 16.4615C127.034 17.3446 127.29 17.3576 127.492 16.4895L127.518 16.3666C127.721 15.4985 127.6 14.6464 127.254 14.4716V14.4716ZM87.5919 26.7675C87.488 26.4209 88.1323 26.1382 89.0234 26.1382H92.4697C93.3598 26.1382 93.3738 26.2811 92.5007 26.4539L89.371 27.0782C88.498 27.253 87.6948 27.1142 87.5919 26.7675V26.7675ZM17.2008 33.7012C17.2538 33.4414 16.5675 33.2267 15.6754 33.2267H14.8483C13.9553 33.2267 13.9353 33.4005 14.8004 33.6123L15.5326 33.7911C16.3967 34.0038 17.1469 33.9609 17.2008 33.7012" fill="#020303"/>
<path d="M4.66309 36.5849C3.77204 36.5959 3.18567 36.7448 3.36148 36.9176C3.53629 37.0924 4.40737 37.2332 5.29742 37.2332H11.8964C12.7844 37.2332 13.6565 37.0634 13.8303 36.8547C14.0041 36.6459 13.4148 36.485 12.5247 36.495L4.66309 36.5849V36.5849ZM34.5523 36.5849C33.6592 36.5959 33.0719 36.7448 33.2477 36.9176C33.4205 37.0924 34.2896 37.2332 35.1796 37.2332H41.7786C42.6686 37.2332 43.5397 37.0634 43.7145 36.8547C43.8883 36.6459 43.299 36.485 42.4099 36.495L34.5523 36.5849V36.5849ZM51.3554 36.4541C50.4643 36.4811 49.7841 36.6489 49.84 36.8227C49.8999 36.9975 50.6761 37.1383 51.5672 37.1383H51.681C52.5721 37.1383 53.3493 36.9675 53.4102 36.7598C53.4681 36.55 52.7889 36.4051 51.8978 36.4331L51.3554 36.4541V36.4541ZM21.3733 21.7947C20.4833 21.8247 19.803 21.9915 19.8619 22.1643C19.9238 22.3381 20.7 22.481 21.5901 22.481H21.702C22.592 22.481 23.3682 22.3101 23.4301 22.1024C23.4891 21.8926 22.8088 21.7467 21.9187 21.7757L21.3733 21.7947V21.7947ZM33.7621 21.7947C32.8731 21.8247 32.1938 21.9915 32.2517 22.1643C32.3137 22.3381 33.0888 22.481 33.9779 22.481H34.0908C34.9818 22.481 35.758 22.3101 35.8179 22.1024C35.8789 21.8926 35.1966 21.7467 34.3055 21.7757L33.7621 21.7947V21.7947ZM8.9815 23.7746C8.09244 23.8065 7.40917 23.9744 7.46211 24.1502C7.51306 24.323 8.23829 24.4638 9.0674 24.4638C9.89652 24.4638 10.6188 24.293 10.6707 24.0862C10.7246 23.8785 10.0404 23.7346 9.15132 23.7686L8.9815 23.7746ZM23.8327 28.8172C22.9406 28.8342 22.3033 28.988 22.4122 29.1628C22.5241 29.3377 23.3432 29.4765 24.2323 29.4765H27.1931C28.0852 29.4765 28.9033 29.3077 29.0122 29.1009C29.1231 28.8931 28.4837 28.7363 27.5937 28.7513L23.8327 28.8172V28.8172ZM17.0229 7.25617C16.1309 7.27215 15.4936 7.42699 15.6044 7.5998C15.7133 7.77262 16.5325 7.91447 17.4215 7.91447H20.3864C21.2784 7.91447 22.0965 7.74465 22.2054 7.53687C22.3133 7.32809 21.674 7.17026 20.7839 7.18524L17.0229 7.25617V7.25617ZM68.5651 36.4541C67.676 36.4811 66.9947 36.6489 67.0547 36.8227C67.1156 36.9975 67.8908 37.1383 68.7808 37.1383H68.8917C69.7818 37.1383 70.5609 36.9675 70.6209 36.7598C70.6808 36.55 70.0005 36.4051 69.1075 36.4331L68.5651 36.4541V36.4541ZM97.9758 36.4491C97.0847 36.4801 96.4004 36.6489 96.4554 36.8237C96.5083 36.9985 97.2316 37.1403 98.0607 37.1403C98.8928 37.1403 99.613 36.9695 99.665 36.7598C99.7189 36.552 99.0306 36.4091 98.1456 36.4411L97.9758 36.4491V36.4491ZM74.0512 36.4761C73.1612 36.497 72.5089 36.6509 72.6058 36.8247C72.7007 36.9995 73.5078 37.1383 74.3979 37.1383H76.6115C77.5026 37.1383 78.3087 36.9675 78.4046 36.7608C78.4995 36.553 77.8492 36.3951 76.9581 36.4151L74.0512 36.4761ZM89.6556 36.4781C88.7636 36.496 88.1242 36.6499 88.2311 36.8247C88.339 36.9995 89.1551 37.1394 90.0452 37.1394H92.8352C93.7273 37.1394 94.5424 36.9685 94.6513 36.7608C94.7572 36.553 94.1159 36.3941 93.2258 36.4131L89.6556 36.4781ZM106.87 36.4681C105.98 36.49 105.315 36.6509 105.391 36.8237C105.47 36.9985 106.262 37.1374 107.152 37.1374H108.358C109.248 37.1374 110.041 36.9665 110.121 36.7588C110.2 36.551 109.535 36.3981 108.643 36.4211L106.87 36.4681ZM141.008 36.4681C140.118 36.49 139.453 36.6509 139.533 36.8237C139.612 36.9985 140.406 37.1374 141.297 37.1374H142.497C143.386 37.1374 144.182 36.9665 144.261 36.7588C144.341 36.551 143.677 36.3981 142.787 36.4211L141.008 36.4681V36.4681ZM165.313 36.4621C164.423 36.486 163.751 36.6499 163.821 36.8227C163.892 36.9975 164.675 37.1383 165.569 37.1383H166.268C167.159 37.1383 167.945 36.9675 168.015 36.7598C168.087 36.551 167.416 36.4011 166.525 36.4271L165.313 36.4621ZM177.422 36.487C176.531 36.5 175.924 36.6499 176.073 36.8237C176.222 36.9985 177.074 37.1374 177.964 37.1374H183.253C184.143 37.1374 184.994 36.9665 185.146 36.7588C185.298 36.551 184.691 36.3891 183.799 36.4011L177.422 36.487V36.487ZM192.363 36.4571C191.472 36.484 190.796 36.6499 190.858 36.8247C190.92 36.9975 191.7 37.1394 192.586 37.1394H192.84C193.732 37.1394 194.51 36.9685 194.571 36.7608C194.634 36.552 193.958 36.4051 193.064 36.4321L192.363 36.4571ZM197.757 36.4761C196.861 36.497 196.215 36.6509 196.311 36.8247C196.407 36.9995 197.216 37.1383 198.106 37.1383H200.375C201.265 37.1383 202.074 36.9675 202.172 36.7608C202.266 36.553 201.617 36.3951 200.726 36.4151L197.757 36.4761V36.4761ZM209.67 36.4701C208.778 36.491 208.118 36.6499 208.2 36.8237C208.284 36.9985 209.08 37.1394 209.972 37.1394H211.396C212.286 37.1394 213.083 36.9685 213.165 36.7608C213.247 36.553 212.587 36.3981 211.696 36.4201L209.67 36.4701V36.4701ZM216.764 36.4621C215.872 36.488 215.2 36.6509 215.266 36.8247C215.334 36.9985 216.119 37.1394 217.012 37.1394H217.601C218.491 37.1394 219.276 36.9685 219.341 36.7608C219.407 36.552 218.735 36.4031 217.845 36.4291L216.764 36.4621ZM226.792 36.491C225.901 36.501 225.321 36.6499 225.507 36.8237C225.693 36.9985 226.572 37.1394 227.462 37.1394H234.761C235.652 37.1394 236.532 36.9685 236.718 36.7598C236.903 36.552 236.325 36.3891 235.436 36.3991L226.792 36.491ZM243.812 36.491C242.919 36.501 242.342 36.6499 242.528 36.8237C242.712 36.9985 243.593 37.1394 244.485 37.1394H251.782C252.674 37.1394 253.554 36.9685 253.741 36.7598C253.929 36.552 253.35 36.3891 252.461 36.3991L243.812 36.491V36.491ZM286.844 36.491C285.954 36.501 285.376 36.6499 285.566 36.8237C285.75 36.9985 286.629 37.1394 287.523 37.1394H294.812C295.704 37.1394 296.585 36.9685 296.771 36.7598C296.957 36.552 296.38 36.3891 295.492 36.3991L286.844 36.491V36.491ZM271.048 7.81957C270.158 7.83755 269.515 7.99139 269.619 8.1662C269.723 8.34002 270.539 8.47987 271.429 8.47987H274.113C275.004 8.47987 275.819 8.31005 275.924 8.10127C276.028 7.89349 275.384 7.73666 274.494 7.75364L271.048 7.81957ZM257.617 7.82456C256.729 7.83955 256.098 7.99139 256.217 8.1662C256.339 8.34002 257.165 8.47987 258.058 8.47987H261.576C262.47 8.47987 263.294 8.31005 263.415 8.10227C263.533 7.89349 262.902 7.73666 262.011 7.74964L257.617 7.82456V7.82456ZM250.806 7.81158C249.916 7.83256 249.255 7.99338 249.341 8.1652C249.423 8.33902 250.218 8.47987 251.112 8.47987H252.624C253.516 8.47987 254.311 8.31005 254.397 8.10127C254.481 7.89249 253.824 7.74065 252.93 7.76163L250.806 7.81158ZM253.081 21.7258C252.189 21.7417 251.55 21.8966 251.658 22.0704C251.763 22.2442 252.581 22.3831 253.47 22.3831H256.322C257.211 22.3831 258.027 22.2142 258.136 22.0075C258.245 21.7987 257.604 21.6429 256.712 21.6578L253.081 21.7258V21.7258ZM211.563 6.86958C210.671 6.89056 210.01 7.04939 210.095 7.2232C210.178 7.39502 210.974 7.53687 211.867 7.53687H213.377C214.269 7.53687 215.064 7.36705 215.148 7.15927C215.23 6.95149 214.571 6.79766 213.679 6.82063L211.563 6.86958ZM221.207 6.86958C220.315 6.89056 219.655 7.04939 219.739 7.2232C219.821 7.39502 220.621 7.53687 221.51 7.53687H223.027C223.917 7.53687 224.713 7.36705 224.798 7.15927C224.878 6.95149 224.22 6.79766 223.326 6.82063L221.207 6.86958ZM215.031 12.9911C214.311 13.023 213.757 13.1948 213.8 13.3687C213.842 13.5435 214.4 13.6863 215.035 13.6863C215.67 13.6863 216.227 13.5145 216.266 13.3067C216.306 13.1009 215.749 12.9581 215.031 12.9911V12.9911ZM218.466 11.0052C217.575 11.0391 216.891 11.21 216.94 11.3838C216.991 11.5576 217.687 11.7004 218.487 11.7004C219.288 11.7004 219.982 11.5296 220.033 11.3208C220.083 11.1111 219.394 10.9682 218.504 11.0042L218.466 11.0052V11.0052ZM175.528 11.3838C174.637 11.4167 173.95 11.5866 174.001 11.7614C174.05 11.9352 174.746 12.078 175.547 12.078C176.348 12.078 177.044 11.9072 177.1 11.6994C177.152 11.4907 176.463 11.3468 175.576 11.3808L175.528 11.3838ZM186.31 21.4181C185.416 21.4461 184.737 21.6109 184.803 21.7857C184.865 21.9585 185.646 22.1014 186.536 22.1014H186.814C187.706 22.1014 188.486 21.9325 188.546 21.7248C188.608 21.515 187.932 21.3681 187.041 21.3941L186.31 21.4181ZM178.744 25.0322C177.854 25.0532 177.202 25.2071 177.299 25.3799C177.396 25.5547 178.201 25.6945 179.095 25.6945H181.304C182.194 25.6945 183.002 25.5237 183.097 25.3159C183.193 25.1062 182.543 24.9513 181.654 24.9713L178.744 25.0322ZM285.8 25.7884C284.91 25.8094 284.261 25.9633 284.358 26.1381C284.454 26.3109 285.264 26.4517 286.153 26.4517H288.36C289.252 26.4517 290.059 26.2809 290.157 26.0721C290.253 25.8644 289.603 25.7105 288.716 25.7285L285.8 25.7884V25.7884ZM107.723 28.6154C106.833 28.6394 106.162 28.8032 106.233 28.975C106.306 29.1469 107.093 29.2877 107.983 29.2877H108.85C109.74 29.2877 110.53 29.1179 110.603 28.9101C110.676 28.7023 110.009 28.5535 109.117 28.5765L107.723 28.6154V28.6154ZM92.5875 25.5877C91.6974 25.6116 91.0282 25.7755 91.1001 25.9473C91.172 26.1191 91.9582 26.2609 92.8482 26.2609H93.7173C94.6093 26.2609 95.3985 26.0911 95.4714 25.8843C95.5443 25.6756 94.8751 25.5257 93.984 25.5497L92.5875 25.5877ZM71.0215 25.303C70.1304 25.3269 69.4621 25.4908 69.535 25.6636C69.61 25.8374 70.3991 25.9792 71.2892 25.9792H72.1562C73.0463 25.9792 73.8355 25.8084 73.9084 25.5986C73.9823 25.3909 73.312 25.24 72.421 25.264L71.0215 25.303ZM38.3992 13.7672C37.5091 13.7842 36.8598 13.9361 36.9577 14.1099C37.0576 14.2847 37.8657 14.4285 38.7578 14.4325L41.1333 14.4415C42.0233 14.4455 42.8355 14.2767 42.9334 14.0689C43.0342 13.8601 42.3879 13.7023 41.4969 13.7163L38.3992 13.7672V13.7672ZM99.633 8.28507C98.7479 8.18718 98.0607 8.2571 98.1096 8.43891C98.1576 8.62271 98.9198 8.86945 99.8018 8.98832L100.664 9.1042C101.547 9.22507 102.351 9.16314 102.45 8.96735C102.549 8.77156 101.908 8.53181 101.021 8.43491L99.633 8.28507ZM192.458 27.3837C191.566 27.4067 190.896 27.5695 190.97 27.7424C191.042 27.9152 191.832 28.056 192.72 28.056H193.588C194.478 28.056 195.266 27.8862 195.34 27.6784C195.41 27.4706 194.743 27.3208 193.85 27.3448L192.458 27.3837V27.3837ZM219.694 24.7376C218.804 24.7615 218.135 24.9234 218.209 25.0972C218.282 25.269 219.07 25.4098 219.96 25.4098H220.828C221.72 25.4098 222.506 25.239 222.579 25.0312C222.65 24.8215 221.983 24.6746 221.094 24.6976L219.694 24.7376V24.7376ZM154.245 7.55185C153.355 7.56085 152.81 7.70969 153.039 7.8845C153.268 8.05732 154.181 8.19917 155.071 8.19917H164.662C165.552 8.19917 166.465 8.03035 166.693 7.81957C166.917 7.61179 166.375 7.44697 165.483 7.45596L154.245 7.55185V7.55185ZM121.81 7.64875C120.921 7.65674 120.382 7.80459 120.618 7.9774C120.852 8.15222 121.774 8.29207 122.663 8.29207H132.665C133.555 8.29207 134.475 8.12325 134.71 7.91347C134.944 7.70569 134.405 7.54187 133.515 7.54986L121.81 7.64875V7.64875ZM120.11 21.4441C119.219 21.457 118.594 21.6109 118.721 21.7847C118.847 21.9595 119.68 22.1024 120.571 22.1024H124.542C125.432 22.1024 126.265 21.9325 126.391 21.7248C126.516 21.517 125.891 21.3582 125.001 21.3711L120.11 21.4441V21.4441ZM128.807 21.4431C127.917 21.4561 127.286 21.6109 127.406 21.7847C127.527 21.9595 128.353 22.1024 129.244 22.1024H132.795C133.684 22.1024 134.511 21.9335 134.632 21.7258C134.753 21.516 134.121 21.3572 133.231 21.3721L128.807 21.4431V21.4431ZM147.442 34.655C146.551 34.685 145.871 34.8538 145.928 35.0256C145.985 35.1984 146.76 35.3413 147.651 35.3413H147.678C148.568 35.3413 149.344 35.1714 149.404 34.9627C149.465 34.7539 148.784 34.609 147.893 34.639L147.442 34.655V34.655ZM144.882 12.4856C143.997 12.3827 143.321 12.4526 143.383 12.6334C143.445 12.8212 144.217 13.07 145.099 13.1918L146.726 13.4186C147.609 13.5385 148.423 13.4805 148.537 13.2848C148.651 13.089 148.021 12.8472 147.135 12.7443L144.882 12.4856V12.4856ZM226.211 27.4307C225.325 27.3278 224.652 27.3947 224.717 27.5765C224.774 27.7613 225.552 28.0111 226.434 28.1339L228.055 28.3587C228.939 28.4796 229.752 28.4216 229.866 28.2268C229.98 28.033 229.35 27.7903 228.467 27.6894L226.211 27.4307V27.4307ZM223.265 12.9911C222.598 13.023 222.082 13.1948 222.121 13.3687C222.158 13.5435 222.672 13.6863 223.262 13.6863C223.856 13.6863 224.369 13.5145 224.407 13.3067C224.445 13.1009 223.933 12.9581 223.265 12.9911V12.9911ZM261.686 21.7278C260.795 21.7437 260.164 21.8956 260.282 22.0694C260.403 22.2432 261.228 22.3851 262.12 22.3851H265.643C266.532 22.3851 267.362 22.2142 267.479 22.0065C267.596 21.7987 266.966 21.6429 266.074 21.6548L261.686 21.7278V21.7278ZM292.892 7.81358C292.002 7.83355 291.343 7.99239 291.43 8.1662C291.517 8.34002 292.317 8.47987 293.206 8.47987H294.825C295.719 8.47987 296.518 8.31105 296.602 8.10127C296.69 7.89349 296.033 7.74165 295.141 7.76063L292.892 7.81358ZM152.926 36.489C152.036 36.501 151.442 36.6509 151.604 36.8247C151.769 36.9985 152.632 37.1383 153.522 37.1383H159.589C160.479 37.1383 161.341 36.9685 161.507 36.7608C161.671 36.553 161.076 36.3911 160.187 36.4031L152.926 36.489V36.489ZM113.206 36.493C112.314 36.502 111.763 36.6489 111.978 36.8227C112.194 36.9975 113.097 37.1383 113.989 37.1383H122.987C123.878 37.1383 124.784 36.9675 125 36.7578C125.216 36.55 124.662 36.3862 123.772 36.3951L113.206 36.493ZM127.96 36.4811C127.071 36.498 126.438 36.6509 126.556 36.8247C126.675 36.9985 127.5 37.1383 128.39 37.1383H131.856C132.746 37.1383 133.57 36.9675 133.691 36.7598C133.807 36.552 133.174 36.3941 132.284 36.4071L127.96 36.4811ZM57.7576 36.565C56.8675 36.5859 56.2032 36.7458 56.2871 36.9186C56.3691 37.0934 57.1632 37.2332 58.0563 37.2332H59.5127C60.4028 37.2332 61.1989 37.0634 61.2808 36.8547C61.3647 36.6459 60.7044 36.495 59.8144 36.515L57.7576 36.565V36.565Z" fill="#E1DCD7"/>
</g>
<defs>
<clipPath id="clip0_64381_875">
<rect width="300" height="49.8" fill="white"/>
</clipPath>
</defs>
</svg>
